<svg width="80" height="80" viewBox="0 0 80 80" fill="none" xmlns="http://www.w3.org/2000/svg">
<path d="M40.1882 9.65079C39.2009 7.97029 37.3761 6.93506 35.4013 6.93506L23.7637 6.93506C21.789 6.93506 19.9642 7.97029 18.9768 9.65079L2.74054 37.2843C1.75315 38.9648 1.75315 41.0352 2.74054 42.7157L18.9768 70.3492C19.9642 72.0297 21.789 73.0649 23.7637 73.0649L56.2363 73.0649C58.211 73.0649 60.0358 72.0297 61.0232 70.3492L66.842 60.4459C67.8294 58.7654 67.8294 56.6949 66.842 55.0144L66.6192 54.6352C64.4917 51.0143 59.1728 51.0143 57.0453 54.6352L54.4178 59.1071C53.4304 60.7876 51.6057 61.8228 49.6309 61.8228H30.3691C28.3943 61.8228 26.5696 60.7876 25.5822 59.1071L15.9513 42.7157C14.9639 41.0352 14.9639 38.9648 15.9513 37.2843L25.5822 20.8929C26.5696 19.2124 28.3943 18.1771 30.3691 18.1771H35.6241C39.8791 18.1771 42.5386 13.6509 40.411 10.0299L40.1882 9.65079Z" fill="black"/>
<path d="M67.5192 42.9989C69.6467 46.6199 74.9655 46.6199 77.0931 42.9989L77.2595 42.7157C78.2468 41.0352 78.2468 38.9648 77.2595 37.2843L61.0232 9.65079C60.0358 7.97029 58.211 6.93506 56.2363 6.93506L55.9034 6.93506C51.6484 6.93506 48.989 11.4613 51.1165 15.0822L67.5192 42.9989Z" fill="black"/>
</svg>
