<svg width="80" height="80" viewBox="0 0 80 80" fill="none" xmlns="http://www.w3.org/2000/svg">
<path d="M18.1288 72.5827C17.3495 73.586 15.8976 73.7739 14.9415 72.9368C9.58446 68.247 5.64417 62.1363 3.59345 55.2931C1.32225 47.7141 1.48246 39.616 4.05166 32.1325C6.62085 24.6489 11.4704 18.1544 17.9215 13.5582C24.3725 8.962 32.1022 6.49411 40.0284 6.50001C47.9545 6.50591 55.6805 8.98532 62.1247 13.5911C68.5688 18.197 73.4087 24.6986 75.9667 32.186C78.5247 39.6734 78.6728 47.7717 76.3903 55.3473C74.3293 62.1875 70.3799 68.2923 65.0159 72.9741C64.0584 73.8098 62.6068 73.6197 61.829 72.6153L58.3602 68.1357C57.5824 67.1313 57.7753 65.6945 58.7137 64.8376C62.3906 61.4798 65.1037 57.1836 66.5471 52.3931C68.2122 46.8667 68.1042 40.9589 66.2381 35.4967C64.372 30.0346 60.8413 25.2916 56.1402 21.9316C51.4391 18.5716 45.8029 16.7628 40.0207 16.7585C34.2385 16.7542 28.5996 18.5545 23.8935 21.9075C19.1874 25.2605 15.6495 29.9983 13.7753 35.4577C11.901 40.917 11.7842 46.8246 13.441 52.3536C14.8772 57.1462 17.5839 61.4464 21.2558 64.8096C22.1929 65.668 22.3836 67.1051 21.6043 68.1084L18.1288 72.5827Z" fill="black"/>
<path d="M57.2726 44.4257C57.2726 53.9465 49.5394 61.6647 39.9999 61.6647C30.4604 61.6647 22.7272 53.9465 22.7272 44.4257C22.7272 34.9049 30.4604 27.1868 39.9999 27.1868C49.5394 27.1868 57.2726 34.9049 57.2726 44.4257ZM33.0988 44.4257C33.0988 48.2296 36.1885 51.3133 39.9999 51.3133C43.8113 51.3133 46.901 48.2296 46.901 44.4257C46.901 40.6218 43.8113 37.5381 39.9999 37.5381C36.1885 37.5381 33.0988 40.6218 33.0988 44.4257Z" fill="black"/>
</svg>
