<svg t="1724376529846" class="icon" viewBox="0 0 1024 1024" version="1.1" xmlns="http://www.w3.org/2000/svg" p-id="6321" width="200" height="200"><path d="M523.73504 319.29344h-204.8c-16.896 0-30.72-13.824-30.72-30.72s13.824-30.72 30.72-30.72h204.8c16.896 0 30.72 13.824 30.72 30.72s-13.824 30.72-30.72 30.72zM605.65504 452.41344h-286.72c-16.896 0-30.72-13.824-30.72-30.72s13.824-30.72 30.72-30.72h286.72c16.896 0 30.72 13.824 30.72 30.72s-13.824 30.72-30.72 30.72z" fill="#FFFFFF" p-id="6322"></path><path d="M323.7376 138.42432h499.41504c41.61536 0 62.42304 20.80768 62.42304 62.42304v499.41504c0 41.61536-20.80768 62.43328-62.42304 62.43328H323.7376c-41.61536 0-62.42304-20.80768-62.42304-62.43328V200.84736c-0.01024-41.61536 20.79744-62.42304 62.42304-62.42304z m0 0" fill="#40A0FF" p-id="6323"></path><path d="M200.84736 261.30432h499.41504c41.61536 0 62.43328 20.80768 62.43328 62.42304v499.41504c0 41.61536-20.80768 62.42304-62.43328 62.42304H200.84736c-41.61536 0-62.42304-20.80768-62.42304-62.42304v-499.4048c0-41.6256 20.80768-62.43328 62.42304-62.43328z m0 0" fill="#3889FF" p-id="6324"></path><path d="M495.69792 726.70208a17.28512 17.28512 0 0 0 17.29536-17.29536V555.2128h57.05728a23.0912 23.0912 0 0 0 14.11072-41.32864l-112.49664-86.528a34.59072 34.59072 0 0 0-42.19904 0l-112.49664 86.528a23.10144 23.10144 0 0 0 14.11072 41.32864h56.99584l0.06144 154.19392c0 9.55392 7.74144 17.29536 17.29536 17.29536h90.2656z m0 0" fill="#FFFFFF" p-id="6325"></path></svg>